<?xml version="1.0" encoding="utf-8"?>
<!-- Generator: Adobe Illustrator 26.0.0, SVG Export Plug-In . SVG Version: 6.00 Build 0)  -->
<svg version="1.1" id="Layer_1" xmlns="http://www.w3.org/2000/svg" xmlns:xlink="http://www.w3.org/1999/xlink" x="0px" y="0px"
	 viewBox="400 600 1400 300" xml:space="preserve">
<style type="text/css">
	.st0{fill:#FFFFFF;}
	.st1{fill:url(#SVGID_1_);}
</style>
<g>
	<g>
		<path class="st0" d="M987.3,856.4V682.4h-60.7v-35.9h162.1v35.9h-60.7v173.9H987.3z"/>
		<path class="st0" d="M1090.3,856.4V700.3h31.6v50.9c4.2-35.3,22.8-52.9,55.8-52.9h5.7V733h-10.9c-13.6,0-24.1,3.6-31.3,10.9
			c-7.3,7.3-10.9,17.6-10.9,31v81.4H1090.3z"/>
		<g>
			<path class="st0" d="M1248.7,644.2c-3.7-4-9.4-6-17.1-6c-7.9,0-13.6,2-17.4,6c-3.7,4-5.6,9.2-5.6,15.5c0,6.3,1.9,11.6,5.6,15.7
				c3.7,4.1,9.5,6.2,17.4,6.2c7.7,0,13.4-2,17.1-6.2c3.7-4.1,5.6-9.3,5.6-15.7C1254.3,653.4,1252.4,648.2,1248.7,644.2z"/>
			<rect x="1211.5" y="700.3" class="st0" width="40" height="156.1"/>
		</g>
		<path class="st0" d="M1322.6,856.4l-48.9-156.1h41.1l36.8,123.3h6.9l31.9-123.3h38.5l-42.3,156.1H1322.6z"/>
		<path class="st0" d="M1524.5,861.8c-18.4,0-33.9-3.8-46.6-11.4c-12.6-7.6-22.3-17.5-28.9-29.8c-6.6-12.3-9.9-25.3-9.9-39.1v-6
			c0-14.4,3.4-27.7,10.2-40c6.8-12.3,16.6-22.1,29.3-29.6c12.7-7.5,28-11.2,45.9-11.2c17.6,0,32.8,3.7,45.6,11.2
			c12.7,7.5,22.5,17.3,29.3,29.6c6.8,12.3,10.2,25.6,10.2,40v6c0,13.8-3.3,26.8-9.9,39.1c-6.6,12.3-16.2,22.2-28.9,29.8
			C1558.1,858,1542.7,861.8,1524.5,861.8z M1524.5,827.6c14.6,0,25.7-4.6,33.5-13.9c7.8-9.3,11.6-21,11.6-35.2
			c0-14.2-4-26-12.1-35.4c-8-9.4-19.1-14.1-33.1-14.1c-14.2,0-25.3,4.7-33.3,14.1c-8,9.4-12.1,21.2-12.1,35.4
			c0,14.2,3.9,25.9,11.6,35.2C1498.5,823,1509.8,827.6,1524.5,827.6z"/>
		<path class="st0" d="M1613.8,856.4l48.3-79.1l-46.3-77h43.4l31.3,54.9h4.3l29.6-54.9h40.8l-43.4,75.3l52.6,80.8h-43.4l-37.1-58.9
			h-4.3l-35.1,58.9H1613.8z"/>
	</g>
	<g>
		<path class="st0" d="M663.6,621.3h149.7c8,0,13.3,8.4,9.9,15.6l-30.9,65.9c-2.4,5.1-7.6,8.4-13.3,8.4h-96.4l-32.4-69.1
			C645.9,632.4,652.9,621.3,663.6,621.3z M426.5,636.9l30.9,65.9c2.4,5.1,7.6,8.4,13.2,8.4h116.2l-36.2-77.3
			c-3.6-7.7-11.4-12.6-19.9-12.6h-94.3C428.4,621.3,423.1,629.6,426.5,636.9z M586.8,711.2l74.5,159.1c2.7,5.9,8.4,8.7,13.9,8.4
			h94.6c-5.1-0.2-10-3-12.5-8.4l-34.7-74.2l-39.8-84.9H586.8z"/>
		
			<linearGradient id="SVGID_1_" gradientUnits="userSpaceOnUse" x1="9935.333" y1="728.5507" x2="9963.9424" y2="890.807" gradientTransform="matrix(-1 0 0 1 10707.7109 0)">
			<stop  offset="0.2626" style="stop-color:#00F0FF"/>
			<stop  offset="0.4506" style="stop-color:#01EDFF"/>
			<stop  offset="0.5791" style="stop-color:#04E4FF"/>
			<stop  offset="0.6898" style="stop-color:#0AD5FF"/>
			<stop  offset="0.7905" style="stop-color:#11BFFF"/>
			<stop  offset="0.8844" style="stop-color:#1BA3FF"/>
			<stop  offset="0.9721" style="stop-color:#2881FF"/>
			<stop  offset="1" style="stop-color:#2C75FF"/>
		</linearGradient>
		<path class="st1" d="M687.8,870.3l24.2-51.7l10.5-22.5l23-49.1c2.4-5.1,7.6-8.4,13.2-8.4h69.4c8,0,13.3,8.4,9.9,15.6l-54.4,116.1
			c-2.8,5.9-8.4,8.7-14,8.4h-94.6C680.3,878.5,685.3,875.7,687.8,870.3z"/>
	</g>
</g>
</svg>
