<?xml version="1.0" encoding="utf-8"?>
<!-- Generator: Adobe Illustrator 26.0.0, SVG Export Plug-In . SVG Version: 6.00 Build 0)  -->
<svg version="1.1" id="Layer_1" xmlns="http://www.w3.org/2000/svg" xmlns:xlink="http://www.w3.org/1999/xlink" x="0px" y="0px"
	 viewBox="570 600 1050 300" xml:space="preserve">
<style type="text/css">
	.st0{fill:url(#SVGID_1_);}
	.st1{fill:url(#SVGID_00000133499302612983185150000005437179514355005066_);}
	.st2{fill:url(#SVGID_00000127763219805315665240000009408891384959907722_);}
	.st3{fill:url(#SVGID_00000039107587941112531440000006282260678875421354_);}
</style>
<g>
	<g fill="#FFFFFF">
		<path d="M652.1,874V724.8H600v-30.8h139.2v30.8h-52.1V874H652.1z"/>
		<path d="M740.5,874v-134h27.1v43.7c3.6-30.3,19.6-45.4,47.9-45.4h4.9v29.9h-9.4c-11.7,0-20.6,3.1-26.9,9.4
			c-6.3,6.3-9.4,15.1-9.4,26.6V874H740.5z"/>
		<g>
			<path d="M876.5,692c-3.2-3.5-8.1-5.2-14.7-5.2c-6.7,0-11.7,1.7-14.9,5.2c-3.2,3.5-4.8,7.9-4.8,13.3c0,5.4,1.6,9.9,4.8,13.5
				c3.2,3.5,8.2,5.3,14.9,5.3c6.6,0,11.5-1.8,14.7-5.3c3.2-3.5,4.8-8,4.8-13.5C881.3,699.8,879.7,695.4,876.5,692z"/>
			<rect x="844.5" y="740.1" width="34.3" height="134"/>
		</g>
		<path d="M939.8,874l-41.9-134h35.3l31.6,105.9h5.9l27.4-105.9h33.1l-36.3,134H939.8z"/>
		<path d="M1113.2,878.7c-15.8,0-29.1-3.2-40-9.7c-10.9-6.5-19.1-15-24.8-25.5c-5.7-10.5-8.5-21.7-8.5-33.6v-5.2
			c0-12.3,2.9-23.8,8.8-34.3c5.8-10.5,14.2-19,25.2-25.4c10.9-6.4,24.1-9.6,39.4-9.6c15.1,0,28.2,3.2,39.1,9.6
			c10.9,6.4,19.3,14.9,25.2,25.4c5.8,10.5,8.8,22,8.8,34.3v5.2c0,11.8-2.8,23-8.5,33.6c-5.7,10.5-13.9,19-24.8,25.5
			C1142.1,875.5,1128.8,878.7,1113.2,878.7z M1113.2,849.4c12.5,0,22.1-4,28.7-12c6.7-8,10-18.1,10-30.2c0-12.2-3.5-22.3-10.4-30.3
			c-6.9-8.1-16.4-12.1-28.4-12.1c-12.2,0-21.7,4-28.6,12.1c-6.9,8.1-10.4,18.2-10.4,30.3c0,12.2,3.3,22.3,10,30.2
			C1090.9,845.4,1100.5,849.4,1113.2,849.4z"/>
		<path d="M1189.8,874l41.5-67.9l-39.7-66.1h37.3l26.9,47.1h3.7l25.4-47.1h35l-37.3,64.6l45.2,69.3h-37.3l-31.8-50.6h-3.7
			l-30.1,50.6H1189.8z"/>
	</g>
	<g>
		
			<linearGradient id="SVGID_1_" gradientUnits="userSpaceOnUse" x1="9163.7373" y1="592.6118" x2="9263.6211" y2="711.6495" gradientTransform="matrix(-1 0 0 1 10707.7109 0)">
			<stop  offset="0" style="stop-color:#3137FD"/>
			<stop  offset="0.3694" style="stop-color:#2F54FE"/>
			<stop  offset="0.7598" style="stop-color:#2D6CFF"/>
			<stop  offset="1" style="stop-color:#2C75FF"/>
		</linearGradient>
		<path class="st0" d="M1411.2,642.1l32.4,69.1h96.4c5.7,0,10.8-3.3,13.3-8.4l30.9-65.9c3.4-7.3-1.9-15.6-9.9-15.6h-149.7
			C1413.7,621.3,1406.7,632.4,1411.2,642.1z"/>
		
			<linearGradient id="SVGID_00000011032407370006332320000002981930385793389479_" gradientUnits="userSpaceOnUse" x1="9360.1172" y1="666.2391" x2="9521.4443" y2="666.2391" gradientTransform="matrix(-1 0 0 1 10707.7109 0)">
			<stop  offset="0" style="stop-color:#2C75FF"/>
			<stop  offset="0.2402" style="stop-color:#2D6CFF"/>
			<stop  offset="0.6306" style="stop-color:#2F54FE"/>
			<stop  offset="1" style="stop-color:#3137FD"/>
		</linearGradient>
		<path style="fill:url(#SVGID_00000011032407370006332320000002981930385793389479_);" d="M1187.3,636.9l30.9,65.9
			c2.4,5.1,7.6,8.4,13.2,8.4h116.2l-36.2-77.3c-3.6-7.7-11.4-12.6-19.9-12.6h-94.3C1189.2,621.3,1183.9,629.6,1187.3,636.9z"/>
		
			<linearGradient id="SVGID_00000085930606880199732150000014932399564999707043_" gradientUnits="userSpaceOnUse" x1="9231.2383" y1="730.2106" x2="9306.8271" y2="861.1342" gradientTransform="matrix(-1 0 0 1 10707.7109 0)">
			<stop  offset="0" style="stop-color:#2C75FF"/>
			<stop  offset="0.2402" style="stop-color:#2D6CFF"/>
			<stop  offset="0.6306" style="stop-color:#2F54FE"/>
			<stop  offset="1" style="stop-color:#3137FD"/>
		</linearGradient>
		<path style="fill:url(#SVGID_00000085930606880199732150000014932399564999707043_);" d="M1443.6,711.2l39.8,84.9l34.7,74.2
			c2.5,5.4,7.4,8.2,12.5,8.4H1436c-5.5,0.2-11.2-2.6-13.9-8.4l-74.5-159.1H1443.6z"/>
		
			<linearGradient id="SVGID_00000145029125749605335630000014035114758564386737_" gradientUnits="userSpaceOnUse" x1="9174.5322" y1="728.5507" x2="9203.1426" y2="890.807" gradientTransform="matrix(-1 0 0 1 10707.7109 0)">
			<stop  offset="0.2626" style="stop-color:#00F0FF"/>
			<stop  offset="0.4506" style="stop-color:#01EDFF"/>
			<stop  offset="0.5791" style="stop-color:#04E4FF"/>
			<stop  offset="0.6898" style="stop-color:#0AD5FF"/>
			<stop  offset="0.7905" style="stop-color:#11BFFF"/>
			<stop  offset="0.8844" style="stop-color:#1BA3FF"/>
			<stop  offset="0.9721" style="stop-color:#2881FF"/>
			<stop  offset="1" style="stop-color:#2C75FF"/>
		</linearGradient>
		<path style="fill:url(#SVGID_00000145029125749605335630000014035114758564386737_);" d="M1448.6,870.3l24.2-51.7l10.5-22.5
			l23-49.1c2.4-5.1,7.6-8.4,13.2-8.4h69.4c8,0,13.3,8.4,9.9,15.6l-54.4,116.1c-2.8,5.9-8.4,8.7-14,8.4H1436
			C1441.1,878.5,1446.1,875.7,1448.6,870.3z"/>
	</g>
</g>
</svg>
